<?xml version="1.0" encoding="UTF-8"?>
<svg id="Layer_2" data-name="Layer 2" xmlns="http://www.w3.org/2000/svg" viewBox="0 0 712 712">
  <defs>
    <style>
      .cls-1, .cls-2 {
        stroke-width: 0px;
      }

      .cls-2 {
        fill: #fff;
      }
    </style>
  </defs>
  <g id="Layer_1-2" data-name="Layer 1">
    <g>
      <rect class="cls-1" width="712" height="712" rx="140" ry="140"/>
      <g>
        <path class="cls-2" d="M348.53,477.51l.31,46.04c.06,9.27,5.6,17.7,14.17,21.25,8.65,3.58,16.74,5.37,24.26,5.37,14.09,0,26.2-6.46,36.33-19.38,10.13-12.92,18.4-29.79,24.78-50.6,6.39-20.8,11.12-44.57,14.2-71.29,3.08-26.71,4.63-53.88,4.63-81.48s-1.87-53.77-5.59-77.21c-3.73-23.43-10.51-43.58-20.37-60.45-9.86-16.86-23.66-29.9-41.4-39.1-17.74-9.2-40.41-13.8-68.01-13.8-21.47,0-40.97,2.85-58.48,8.54-17.53,5.7-32.53,14.13-45.01,25.3s-22.13,24.97-28.91,41.4c-6.8,16.43-10.18,35.38-10.18,56.84,0,12.71,1.09,23.22,3.29,31.54,2.19,8.33,4.6,15.34,7.23,21.03,2.63,5.7,5.14,10.08,7.56,13.14,2.4,3.07,4.05,5.26,4.93,6.57-26.28,0-47.21-6.13-62.75-18.4-15.55-12.26-23.33-31.97-23.33-59.14,0-21.46,5.26-41.83,15.77-61.11,10.51-19.27,25.19-35.91,44.03-49.94,18.83-14.01,41.4-25.19,67.68-33.51,26.28-8.32,55.41-12.48,87.39-12.48,39.43,0,73.15,6.36,101.19,19.06,28.03,12.71,50.92,30.01,68.67,51.91,17.74,21.91,30.66,47.31,38.77,76.22,8.1,28.91,12.16,59.8,12.16,92.65,0,29.79-3.08,60.02-9.23,90.68-6.16,30.67-14.95,58.48-26.37,83.45-11.43,24.97-25.05,45.34-40.86,61.11-15.82,15.77-33.61,23.66-53.39,23.66-10.11,0-22.31-2.41-36.58-7.23-8.02-2.71-16.43-6.45-25.22-11.23-9.58-5.21-21.25,1.64-21.25,12.55h0s-14.55,0-14.55,0c-44.22,0-80.07-35.85-80.07-80.07v-119.84h15.73c43.14,0,78.2,34.82,78.49,77.97Z"/>
        <path class="cls-2" d="M254.31,252.43h33.45c33.67,0,61.01,27.34,61.01,61.01h0c0,33.67-27.34,61.01-61.01,61.01h-33.45v-122.02h0Z"/>
      </g>
    </g>
  </g>
</svg>