<?xml version="1.0" encoding="UTF-8"?>
<svg id="Layer_2" data-name="Layer 2" xmlns="http://www.w3.org/2000/svg" xmlns:xlink="http://www.w3.org/1999/xlink" viewBox="0 0 924.88 278.47">
  <defs>
    <style>
      .cls-1, .cls-2 {
        stroke-width: 0px;
      }

      .cls-2 {
        fill: url(#linear-gradient);
        opacity: .81;
      }
    </style>
    <linearGradient id="linear-gradient" x1="-59.08" y1="256.1" x2="755.64" y2="256.1" gradientUnits="userSpaceOnUse">
      <stop offset="0" stop-color="#fff"/>
      <stop offset=".15" stop-color="#fbfbfb"/>
      <stop offset=".28" stop-color="#f1f1f1"/>
      <stop offset=".4" stop-color="#dfdfdf"/>
      <stop offset=".52" stop-color="#c6c6c6"/>
      <stop offset=".63" stop-color="#a6a6a6"/>
      <stop offset=".74" stop-color="#7f7f7f"/>
      <stop offset=".85" stop-color="#515151"/>
      <stop offset=".95" stop-color="#1c1c1c"/>
      <stop offset="1" stop-color="#000"/>
    </linearGradient>
  </defs>
  <g id="Layer_1-2" data-name="Layer 1">
    <g>
      <g>
        <path class="cls-1" d="M95.24,26.41v157.9c6.02,3.56,11.49,5.34,16.39,5.34,6.02,0,11.2-2.76,15.54-8.29,4.33-5.52,7.87-12.74,10.6-21.63,2.73-8.89,4.75-19.06,6.07-30.48,1.32-11.42,1.98-23.04,1.98-34.84s-.8-22.99-2.39-33.01c-1.59-10.02-4.5-18.64-8.71-25.85-4.21-7.21-10.11-12.78-17.7-16.72-7.59-3.93-17.28-5.9-29.08-5.9-9.18,0-17.52,1.22-25,3.65-7.49,2.44-13.91,6.04-19.25,10.82-5.34,4.78-9.46,10.68-12.36,17.7-2.91,7.02-4.35,15.13-4.35,24.3,0,5.44.47,9.93,1.4,13.49.94,3.56,1.97,6.56,3.09,8.99,1.12,2.44,2.2,4.31,3.23,5.62,1.03,1.31,1.73,2.25,2.11,2.81-11.24,0-20.18-2.62-26.83-7.87-6.65-5.24-9.97-13.67-9.97-25.29,0-9.17,2.25-17.88,6.74-26.13,4.5-8.24,10.77-15.36,18.82-21.35,8.05-5.99,17.7-10.77,28.94-14.33C65.74,1.78,78.2,0,91.87,0c16.86,0,31.28,2.72,43.27,8.15,11.98,5.43,21.77,12.83,29.36,22.19,7.59,9.37,13.11,20.23,16.58,32.59,3.46,12.36,5.2,25.57,5.2,39.61,0,12.74-1.32,25.66-3.95,38.77-2.63,13.11-6.39,25-11.27,35.68-4.89,10.68-10.71,19.39-17.47,26.13-6.76,6.74-14.37,10.11-22.83,10.11-4.32,0-9.54-1.03-15.64-3.09-6.11-2.06-12.73-5.52-19.87-10.4v10.96h-40.46V32.03l40.46-5.62Z"/>
        <path class="cls-1" d="M270.83,188.8c5.62,0,10.58-.75,14.89-2.25,4.31-1.5,8.15-3.51,11.52-6.04,3.37-2.53,6.46-5.52,9.27-8.99,2.81-3.46,5.52-7.17,8.15-11.1h9.55c-2.62,6.56-5.76,12.92-9.41,19.1s-8.15,11.71-13.49,16.58c-5.34,4.87-11.57,8.81-18.68,11.8-7.12,2.99-15.45,4.5-25,4.5-8.06,0-15.45-1.22-22.2-3.65s-12.6-6.22-17.56-11.38c-4.96-5.15-8.81-11.8-11.52-19.95-2.72-8.15-4.07-17.93-4.07-29.36,0-8.05.89-16.72,2.67-25.99,1.78-9.27,4.92-17.84,9.41-25.71s10.58-14.42,18.26-19.67c7.68-5.24,17.42-7.87,29.22-7.87,8.99,0,15.92,1.4,20.79,4.21,4.87,2.81,8.47,6.09,10.82,9.83,2.34,3.75,3.74,7.4,4.21,10.96.47,3.56.7,6.09.7,7.59,0,8.43-1.55,15.83-4.64,22.19-3.09,6.37-7.21,11.76-12.36,16.15-5.15,4.4-11.05,7.77-17.7,10.11-6.65,2.34-13.44,3.7-20.37,4.07.18,12.55,2.29,21.49,6.32,26.83,4.03,5.34,11.1,8.01,21.21,8.01ZM276.73,101.9c0-6.52-1.12-11.13-3.37-13.84-2.25-2.7-4.68-4.06-7.3-4.06-3.19,0-6.09,1.54-8.71,4.61-2.62,3.08-4.92,7.18-6.88,12.3-1.97,5.13-3.56,11.14-4.78,18.03-1.22,6.9-2.02,14.07-2.39,21.52,4.68-.37,9.08-1.63,13.2-3.77,4.12-2.14,7.68-4.94,10.68-8.39,2.99-3.45,5.34-7.41,7.02-11.88,1.69-4.47,2.53-9.32,2.53-14.54Z"/>
        <path class="cls-1" d="M388.27,64.62c9.55,0,16.44,4.68,20.65,14.05,4.21,9.37,6.32,22.29,6.32,38.77,0,10.68-.94,21.63-2.81,32.87-1.87,11.24-5.06,21.45-9.55,30.62-4.5,9.18-10.44,16.72-17.84,22.62-7.4,5.9-16.62,8.85-27.67,8.85-13.49,0-23.98-4.21-31.47-12.64-7.49-8.43-11.24-19.76-11.24-34v-95.52h40.46v95.52c0,6.74.94,11.66,2.81,14.75,1.87,3.09,4.96,4.64,9.27,4.64,5.43,0,10.11-2.15,14.05-6.46,3.93-4.31,7.16-9.83,9.69-16.58,2.53-6.74,4.4-14.23,5.62-22.48,1.22-8.24,1.83-16.3,1.83-24.16,0-8.61-.75-16.67-2.25-24.16-.38.94-1.59,1.64-3.65,2.11-2.06.47-3.65.7-4.78.7-2.06,0-3.89-.56-5.48-1.69-1.59-1.12-3-2.57-4.21-4.35-1.22-1.78-2.16-3.7-2.81-5.76-.66-2.06-.98-4.03-.98-5.9,0-3.37,1.17-6.18,3.51-8.43,2.34-2.25,5.85-3.37,10.54-3.37Z"/>
        <path class="cls-1" d="M427.88,32.87c0-6.18,2.15-11.47,6.46-15.87,4.31-4.4,9.55-6.6,15.73-6.6s11.47,2.2,15.87,6.6c4.4,4.4,6.6,9.69,6.6,15.87s-2.2,11.43-6.6,15.73c-4.4,4.31-9.69,6.46-15.87,6.46s-11.43-2.15-15.73-6.46c-4.31-4.31-6.46-9.55-6.46-15.73ZM471.43,70.24v95.52c0,7.87,1.08,13.06,3.23,15.59,2.15,2.53,5.94,3.79,11.38,3.79s9.97-2.34,13.63-7.02c3.65-4.68,5.76-10.58,6.32-17.7h11.8c-1.5,11.43-4.12,20.56-7.87,27.39-3.75,6.84-7.96,12.08-12.64,15.73-4.68,3.65-9.46,6.04-14.33,7.16-4.87,1.12-9.18,1.69-12.92,1.69-14.42,0-24.54-3.98-30.34-11.94-5.81-7.96-8.71-18.49-8.71-31.61v-98.61h40.46Z"/>
        <path class="cls-1" d="M546.44,25.85v44.39h17.14v11.24h-17.14v84.29c0,7.87,1.08,13.06,3.23,15.59,2.15,2.53,5.94,3.79,11.38,3.79s9.97-2.34,13.63-7.02c3.65-4.68,5.76-10.58,6.32-17.7h11.8c-1.5,11.43-4.12,20.56-7.87,27.39-3.75,6.84-7.96,12.08-12.64,15.73-4.68,3.65-9.46,6.04-14.33,7.16-4.87,1.12-9.18,1.69-12.92,1.69-14.42,0-24.54-3.98-30.34-11.94-5.81-7.96-8.71-18.49-8.71-31.61v-87.38h-8.99v-11.24h8.99V31.47l40.46-5.62Z"/>
        <path class="cls-1" d="M691.13,70.24v95.52c0,7.12.93,12.13,2.81,15.03,1.87,2.91,5.24,4.35,10.11,4.35,7.12,0,12.31-2.43,15.59-7.3,3.27-4.87,5.29-10.68,6.04-17.42h11.8c-1.5,11.43-4.12,20.56-7.87,27.39-3.75,6.84-7.96,12.08-12.64,15.73-4.68,3.65-9.46,6.04-14.33,7.16-4.87,1.12-9.27,1.69-13.2,1.69-10.11,0-17.75-2.34-22.9-7.02-5.15-4.68-8.67-11.24-10.54-19.67-2.25,6-4.96,10.72-8.15,14.19-3.19,3.47-6.46,6.14-9.83,8.01-3.37,1.88-6.74,3.09-10.11,3.65-3.37.56-6.46.84-9.27.84-13.3,0-22.9-3.93-28.8-11.8s-8.85-18.45-8.85-31.75v-98.61h40.46v95.52c0,7.12.98,12.13,2.95,15.03,1.97,2.91,4.82,4.35,8.57,4.35,5.06,0,9.27-2.34,12.64-7.02,3.37-4.68,5.06-10.58,5.06-17.7v-90.19h40.46Z"/>
        <path class="cls-1" d="M863.91,125.87c0-11.24-1.31-19.25-3.93-24.02-2.63-4.78-6.18-7.16-10.68-7.16-5.43,0-9.41,2.58-11.94,7.73-2.53,5.15-4.07,11.19-4.64,18.12v90.19h-40.46v-96.93c0-2.06-.19-4.21-.56-6.46-.38-2.25-.98-4.35-1.83-6.32-.84-1.97-2.06-3.56-3.65-4.78-1.59-1.22-3.61-1.83-6.04-1.83-5.06,0-8.99,2.53-11.8,7.59s-4.5,11.24-5.06,18.54v90.19h-40.46V70.24h40.46v14.61c4.68-6.93,9.79-11.33,15.31-13.21,5.52-1.87,10.35-2.81,14.47-2.81,7.3,0,14.14,1.87,20.51,5.62,6.37,3.75,11.24,9.83,14.61,18.26,2.26-5.06,4.79-9.13,7.61-12.22s5.78-5.48,8.88-7.16c3.1-1.69,6.2-2.81,9.31-3.37,3.1-.56,6.06-.84,8.88-.84,5.26,0,10.29.84,15.09,2.53,4.79,1.69,9.02,4.54,12.69,8.57,3.67,4.03,6.53,9.37,8.6,16.01,2.07,6.65,3.1,14.85,3.1,24.58,0,2.44-.05,5.43-.14,8.99-.1,3.56-.24,7.26-.42,11.1-.19,3.84-.33,7.59-.42,11.24-.1,3.65-.14,6.7-.14,9.13,0,8.24,1.01,14.28,3.05,18.12,2.04,3.84,6.29,5.76,12.77,5.76,3.7,0,6.29-.56,7.77-1.69,0,10.3-2.11,17.7-6.32,22.19-4.21,4.5-10.54,6.74-18.96,6.74-6.74,0-12.46-1.36-17.14-4.07-4.68-2.71-8.43-6.46-11.24-11.24s-4.82-10.3-6.04-16.58c-1.22-6.27-1.83-13.06-1.83-20.37,0-1.87.04-4.35.14-7.45.09-3.09.14-6.32.14-9.69s.04-6.65.14-9.83c.09-3.18.14-5.62.14-7.3Z"/>
      </g>
      <g>
        <path class="cls-2" d="M53.94,233.72h795.88c10.4,0,18.84,8.44,18.84,18.84v7.06c0,10.4-8.44,18.84-18.84,18.84H53.94v-44.75h0Z"/>
        <circle class="cls-1" cx="902.5" cy="256.1" r="22.37"/>
      </g>
    </g>
  </g>
</svg>